<svg width="51" height="51" viewBox="0 0 51 51" fill="none" xmlns="http://www.w3.org/2000/svg">
<path d="M25.5 4.25C13.7636 4.25 4.25 13.7636 4.25 25.5C4.25 37.2364 13.7636 46.75 25.5 46.75C37.2364 46.75 46.75 37.2364 46.75 25.5C46.75 13.7636 37.2364 4.25 25.5 4.25ZM25.5 36.125C24.327 36.125 23.375 35.173 23.375 34V25.5C23.375 24.327 24.327 23.375 25.5 23.375C26.673 23.375 27.625 24.327 27.625 25.5V34C27.625 35.173 26.673 36.125 25.5 36.125ZM26.5625 19.125H24.4375C23.851 19.125 23.375 18.649 23.375 18.0625V15.9375C23.375 15.351 23.851 14.875 24.4375 14.875H26.5625C27.149 14.875 27.625 15.351 27.625 15.9375V18.0625C27.625 18.649 27.149 19.125 26.5625 19.125Z" fill="#323232"/>
</svg>
