<svg width="45" height="39" viewBox="0 0 45 39" fill="none" xmlns="http://www.w3.org/2000/svg">
<path d="M44.2579 32.8334L25.5643 1.734C24.9119 0.648125 23.7666 0 22.5001 0C21.2336 0 20.0882 0.648125 19.4379 1.73188L0.742185 32.8334C0.0791846 33.9362 0.0621845 35.3154 0.695434 36.4352C1.32656 37.5551 2.51868 38.25 3.80643 38.25H41.1958C42.4814 38.25 43.6757 37.5551 44.3068 36.4352C44.9401 35.3154 44.9209 33.9362 44.2579 32.8334ZM23.5626 31.875H21.4376C20.8511 31.875 20.3751 31.399 20.3751 30.8125V28.6875C20.3751 28.101 20.8511 27.625 21.4376 27.625H23.5626C24.1491 27.625 24.6251 28.101 24.6251 28.6875V30.8125C24.6251 31.399 24.1491 31.875 23.5626 31.875ZM22.5001 23.375C21.3271 23.375 20.3751 22.423 20.3751 21.25V14.875C20.3751 13.702 21.3271 12.75 22.5001 12.75C23.6731 12.75 24.6251 13.702 24.6251 14.875V21.25C24.6251 22.423 23.6731 23.375 22.5001 23.375Z" fill="#323232"/>
</svg>
